<?xml version="1.0" encoding="UTF-8"?>
<svg width="128px" height="128px" viewBox="0 0 128 128" version="1.1" xmlns="http://www.w3.org/2000/svg" xmlns:xlink="http://www.w3.org/1999/xlink">
    <g id="comments" transform="translate(10.000000, 11.000000)" fill="#2C3E50" fill-rule="nonzero">
        <path d="M95.2025316,5.50649351 C99.7556962,5.50649351 103.481013,9.22337662 103.481013,13.7662338 L103.481013,71.5844156 C103.481013,76.1272727 99.7556962,79.8441558 95.2025316,79.8441558 L89.6835443,79.8441558 L84.164557,79.8441558 L84.164557,85.3506494 L84.164557,94.8493506 L66.2278481,81.0831169 L64.8481013,79.8441558 L62.9164557,79.8441558 L13.7974684,79.8441558 C9.2443038,79.8441558 5.51898734,76.1272727 5.51898734,71.5844156 L5.51898734,13.7662338 C5.51898734,9.22337662 9.2443038,5.50649351 13.7974684,5.50649351 L95.2025316,5.50649351 L95.2025316,5.50649351 Z M95.2025316,0 L13.7974684,0 C6.20886076,0 0,6.19480519 0,13.7662338 L0,71.5844156 C0,79.1558442 6.20886076,85.3506494 13.7974684,85.3506494 L62.9164557,85.3506494 L89.6835443,106 L89.6835443,85.3506494 L95.2025316,85.3506494 C102.791139,85.3506494 109,79.1558442 109,71.5844156 L109,13.7662338 C109,6.19480519 102.791139,0 95.2025316,0 L95.2025316,0 Z" id="Shape"></path>
    </g>
</svg>
