<?xml version="1.0" ?><!DOCTYPE svg  PUBLIC '-//W3C//DTD SVG 1.1//EN'  'http://www.w3.org/Graphics/SVG/1.1/DTD/svg11.dtd'><svg enable-background="new 0 0 128 128" height="128px" id="Layer_1" version="1.1" viewBox="0 0 128 128" width="128px" xml:space="preserve" xmlns="http://www.w3.org/2000/svg" xmlns:xlink="http://www.w3.org/1999/xlink"><path d="M73,25c0.8,0.1,1.1,0.4,1.3,0.7c0.5,0.7,1.4,2.6,1.5,7.5c0,9.2-4.9,18.8-5,18.9L67.2,59l7.7-1.1  c0.1,0,6-0.8,12.7-0.8c3.5,0,6.5,0.2,9,0.7c3.9,0.7,5.2,6,3.9,16.3c0,0.4-0.1,0.7-0.1,0.9c-0.6,4.8-0.9,7.8-1.1,9  c-0.1,0.3-0.1,0.5-0.2,0.9c0,0.3-0.1,0.7-0.2,1.4c-0.2,1.4-0.5,3.9-1,8.2c-0.9,7.9-3.4,9.3-18.1,9.7c-2.2,0.1-4.4,0.1-6.4,0.1  c-6.5,0-12.4-0.3-17.1-0.9c-1.7-0.2-6.7-2.2-10.3-4.2L45.2,99h-1H32V70h12.2h1.9l1.2-1.7l11.5-14.8c1-1.1,7.6-8.4,10.7-14.7  c1.2-2.4,1.7-5.4,2.2-8.2C72,28.9,72.5,26.2,73,25 M72.4,21c-4.9,0-4,10.7-6.5,16C63,43.3,55.9,51,55.9,51L44.2,66H28v37h16.2  c0,0,8.1,4.2,11.7,4.6c4.1,0.5,9.9,0.8,17.6,0.8c2,0,4.2-0.1,6.5-0.1c14.4-0.4,20.6-1.8,21.9-13.3c1-8.6,1.2-9.9,1.2-9.9  c0,0,0,0.2,0,0.2c0,0,0.2-1.2,1.2-9.9c0.4-3.6,3.2-19.8-7-21.6c-3-0.5-6.5-0.7-9.7-0.7c-7,0-13.2,0.9-13.2,0.9s5.5-10.4,5.4-20.7  C79.8,22.8,76.1,21,72.4,21C72.4,21,72.4,21,72.4,21L72.4,21z" fill="#2C3E50"/><path d="M46,94.7c-0.6,0-1-0.4-1-1v-19c0-0.6,0.4-1,1-1s1,0.4,1,1v19C47,94.2,46.6,94.7,46,94.7z" fill="#3B97D3"/></svg>